<svg xmlns="http://www.w3.org/2000/svg" viewBox="30 70 158 89"><defs><style>.cls-1{fill:#fff;}.cls-2,.cls-5{fill:#47c5eb;}.cls-2,.cls-3{fill-rule:evenodd;}.cls-3,.cls-4{fill:#24203b;}</style></defs><title>DFL-logo-2</title><g id="Layer_1" data-name="Layer 1"><rect class="cls-1" width="230.4" height="230.4"/></g><g id="Layer_2" data-name="Layer 2"><path class="cls-2" d="M132.23,77.17A4.87,4.87,0,0,1,133,74.8l-1.41-.7c-5.15,2.7-10.37,5.29-15.41,8.2l-.25.14-.25-.14c-5-2.91-10.26-5.5-15.41-8.2l-3.19,1.59c6.26,3.61,12.62,7,18.87,10.63,5.38-3.11,10.88-6,16.27-9.15Zm4.55.12v25.47l-10.26,5.93-9.29,5.36V88.57l4.84-2.79Z" transform="translate(-0.5 -0.1)"/></g><g id="Layer_3" data-name="Layer 3"><path class="cls-3" d="M114.47,117.69l9.28-5.36L134,106.4V87.64H138l0,21.06-23.52,13.57L91,108.7l0-34.07,7.88-3.93,15.61,8.19,15.62-8.19,6,3a4.85,4.85,0,0,1,1.61,9.19,4.82,4.82,0,0,1-3.29.33A4.87,4.87,0,0,1,132.21,82l-12.9,7.45a.91.91,0,0,1,0,.17A4.86,4.86,0,0,1,116.46,94v8.45a4.84,4.84,0,0,1-.33,9,4.87,4.87,0,0,1-3.31,0,4.84,4.84,0,0,1-.33-9V94a4.85,4.85,0,0,1-2.86-4.42v-.17l-14.7-8.49V106.4l9.94,5.74,9.6,5.55ZM98.81,75.15l-3.19,1.6,10.57,6.09,5.2,3a4.86,4.86,0,0,1,6.16,0l3-1.73,10.22-5.89a4.84,4.84,0,0,1,.78-2.37l-1.41-.71c-5.15,2.7-10.37,5.29-15.4,8.2l-.26.15-.25-.15c-5-2.91-10.25-5.5-15.41-8.2ZM137,78.41a1.37,1.37,0,1,0,0,.19v-.19Zm-22,9.9a1.28,1.28,0,0,0-.48-.09,1.36,1.36,0,0,0-.48.09,1.37,1.37,0,1,0,1.85,1.28,1.36,1.36,0,0,0-.89-1.28Zm.89,18.57a1.37,1.37,0,0,0-1.37-1.37,1.35,1.35,0,0,0-1.08.53,1.34,1.34,0,0,0-.29.84,1.37,1.37,0,0,0,2.74,0Z" transform="translate(-0.5 -0.1)"/></g><g id="Layer_4" data-name="Layer 4"><path class="cls-4" d="M43.87,135.43a7,7,0,0,0-.54-2.75,6.52,6.52,0,0,0-1.52-2.2A7,7,0,0,0,39.46,129a8.29,8.29,0,0,0-3-.53H31.27v13.93h5.19a8.08,8.08,0,0,0,3-.53,7.17,7.17,0,0,0,2.35-1.48,6.56,6.56,0,0,0,1.52-2.21,7.07,7.07,0,0,0,.54-2.76Zm-2.57,0a5.1,5.1,0,0,1-.35,1.9,4.47,4.47,0,0,1-1,1.49,4.33,4.33,0,0,1-1.53,1,5.47,5.47,0,0,1-2,.35H33.72v-9.48h2.74a5.26,5.26,0,0,1,2,.36,4.37,4.37,0,0,1,1.53,1,4.51,4.51,0,0,1,1,1.5,5.1,5.1,0,0,1,.35,1.9Zm18.49-7H49.47v13.93H59.89v-2.18h-8v-3.75h7V134.3h-7v-3.63h7.88v-2.19Zm16.43,4.68a4.78,4.78,0,0,0-.37-1.93,4.3,4.3,0,0,0-1-1.47,4.75,4.75,0,0,0-1.68-.95,6.87,6.87,0,0,0-2.2-.33H65.43v13.93h2.45v-4.47h2.77a7.64,7.64,0,0,0,2.17-.31,5.5,5.5,0,0,0,1.77-.91,4.16,4.16,0,0,0,1.19-1.49,4.7,4.7,0,0,0,.44-2.07Zm-2.49.06a2.26,2.26,0,0,1-.81,1.82,3.25,3.25,0,0,1-2.19.69H67.88v-5h2.85a3.47,3.47,0,0,1,2.18.63,2.22,2.22,0,0,1,.82,1.88Zm13.52-2.47h4.42v-2.27H80.36v2.27h4.42v11.66h2.47V130.75ZM106,136.54v5.87h2.45V128.48H106v5.8H99.34v-5.8H96.89v13.93h2.45v-5.87Zm25-8.06H120.62v13.93h2.44v-5.67h7v-2.23h-7v-3.8H131v-2.23Zm5.46,0v13.93h2.45V128.48Zm20.63,13.93-3.76-5.27a4.88,4.88,0,0,0,1.34-.57,4.06,4.06,0,0,0,1-.89,3.75,3.75,0,0,0,.69-1.22,4.4,4.4,0,0,0,.25-1.56,4.58,4.58,0,0,0-.36-1.84,3.83,3.83,0,0,0-1-1.39,4.81,4.81,0,0,0-1.63-.88,7.32,7.32,0,0,0-2.16-.31h-6.21v13.93h2.45v-4.85h3.06l3.42,4.85ZM154.14,133a2.1,2.1,0,0,1-.77,1.71,3.18,3.18,0,0,1-2.09.64H147.7v-4.68h3.56a3.44,3.44,0,0,1,2.13.59,2.07,2.07,0,0,1,.75,1.74Zm10.2-.91a1.49,1.49,0,0,1,.6-1.19,2.58,2.58,0,0,1,1.67-.48,5.28,5.28,0,0,1,1.89.36,8.68,8.68,0,0,1,1.89,1.07L171.7,130a7.6,7.6,0,0,0-5-1.75,6.12,6.12,0,0,0-1.91.28,4.49,4.49,0,0,0-1.51.83,4.09,4.09,0,0,0-1,1.28,3.82,3.82,0,0,0-.36,1.67,3.89,3.89,0,0,0,.31,1.65,3.14,3.14,0,0,0,.9,1.15,5.12,5.12,0,0,0,1.45.8,16,16,0,0,0,2,.57c.65.16,1.18.32,1.58.46a4.29,4.29,0,0,1,1,.47,1.32,1.32,0,0,1,.47.55,1.6,1.6,0,0,1,.13.67A1.52,1.52,0,0,1,169,140a3.06,3.06,0,0,1-1.81.47,5.65,5.65,0,0,1-2.34-.46,8.52,8.52,0,0,1-2.05-1.35l-1.48,1.75a8.55,8.55,0,0,0,2.73,1.69,8.87,8.87,0,0,0,3.08.54,6.74,6.74,0,0,0,2-.28,4.46,4.46,0,0,0,1.58-.81,3.84,3.84,0,0,0,1-1.31,4,4,0,0,0,.37-1.78,3.75,3.75,0,0,0-.29-1.52,3.18,3.18,0,0,0-.84-1.13,4.91,4.91,0,0,0-1.41-.83,15.43,15.43,0,0,0-1.94-.61c-.66-.16-1.21-.32-1.64-.46a4.15,4.15,0,0,1-1-.48,1.4,1.4,0,0,1-.51-.56,1.7,1.7,0,0,1-.14-.71Zm18.89-1.38h4.42v-2.27h-11.3v2.27h4.41v11.66h2.47Z" transform="translate(-0.5 -0.1)"/></g><g id="Layer_5" data-name="Layer 5"><path class="cls-5" d="M71,158.79h7v-1.6H72.74v-8.42H71v10Zm18.18-10H81.73v10h7.5v-1.58H83.49v-2.69h5V153h-5v-2.61h5.67v-1.57Zm9.24-.07H96.76l-4.4,10.09h1.8l1-2.42h4.74l1,2.42h1.86L98.4,148.7Zm.88,6.11H95.83l1.72-4,1.73,4Zm15.64,4L112.21,155a4,4,0,0,0,1-.41,2.93,2.93,0,0,0,.75-.65,2.85,2.85,0,0,0,.49-.87,3.25,3.25,0,0,0,.18-1.12,3.19,3.19,0,0,0-.26-1.33,2.7,2.7,0,0,0-.73-1,3.41,3.41,0,0,0-1.18-.63,5,5,0,0,0-1.55-.22h-4.46v10h1.76V155.3h2.2l2.46,3.49Zm-2.11-6.74a1.52,1.52,0,0,1-.55,1.23,2.36,2.36,0,0,1-1.51.46h-2.57v-3.37h2.56a2.44,2.44,0,0,1,1.53.42,1.51,1.51,0,0,1,.54,1.26Zm12.85,3.65-5.37-6.93h-1.63v10h1.73v-7.13l5.52,7.13h1.48v-10h-1.73v6.93Zm6.3-6.93v10h1.76v-10Zm13.33,6.93-5.37-6.93h-1.63v10H140v-7.13l5.53,7.13H147v-10h-1.73v6.93Zm15.13,1.7v-4.21h-4.26v1.53h2.56v1.88a3.92,3.92,0,0,1-1.08.55,4.18,4.18,0,0,1-1.34.21,3.45,3.45,0,0,1-1.39-.27,3.25,3.25,0,0,1-1.77-1.89,4.18,4.18,0,0,1-.24-1.44,3.7,3.7,0,0,1,.25-1.37,3.48,3.48,0,0,1,.68-1.13,3.39,3.39,0,0,1,1-.77,3.09,3.09,0,0,1,1.28-.27,3.77,3.77,0,0,1,1.59.29,3.78,3.78,0,0,1,.63.33c.2.14.4.29.59.45l1.12-1.33a6,6,0,0,0-.8-.58,4.56,4.56,0,0,0-.86-.42,5.05,5.05,0,0,0-1-.27,7.29,7.29,0,0,0-1.19-.09,5.3,5.3,0,0,0-2.09.41,5,5,0,0,0-2.7,2.78,5.39,5.39,0,0,0-.38,2,5.49,5.49,0,0,0,.37,2.05,4.91,4.91,0,0,0,1.05,1.64,5.06,5.06,0,0,0,1.64,1.09,5.61,5.61,0,0,0,2.13.39,6.21,6.21,0,0,0,2.39-.46,5.91,5.91,0,0,0,1-.5A6.68,6.68,0,0,0,160.42,157.4Z" transform="translate(-0.5 -0.1)"/></g></svg>