<?xml version="1.0" encoding="utf-8"?>
<!-- Generator: Adobe Illustrator 21.0.1, SVG Export Plug-In . SVG Version: 6.00 Build 0)  -->
<svg version="1.1" id="Layer_1" xmlns="http://www.w3.org/2000/svg" xmlns:xlink="http://www.w3.org/1999/xlink" x="0px" y="0px"
	 viewBox="60 30 380 280" style="enable-background:new 0 0 500 350;" xml:space="preserve">
<style type="text/css">
	.st0{fill-rule:evenodd;clip-rule:evenodd;fill:#55C7E4;}
	.st1{fill-rule:evenodd;clip-rule:evenodd;fill:#353755;}
	.st2{fill:#353755;}
	.st3{fill:#55C7E4;}
</style>
<g>
	<path class="st0" d="M310.7,60.1c0.1-2.6,1-5,2.3-7.1l-4.2-2.1c-15.5,8.1-31.2,15.9-46.4,24.7l-0.8,0.4l-0.8-0.4
		c-15.2-8.8-30.9-16.6-46.4-24.7l-9.6,4.8c18.8,10.9,38,21.2,56.8,32C277.9,78.3,294.5,69.5,310.7,60.1L310.7,60.1z M324.4,60.5
		L280.1,86l-14.6,8.4c0,23.9,0,40,0,58.7l0,18l27.9-16.1l30.9-17.8V60.5L324.4,60.5z"/>
	<path class="st1" d="M257.3,182.1l27.9-16.1l30.9-17.8V91.6H328l0,63.4l-70.8,40.9L186.5,155l0.1-102.5l23.7-11.8l47,24.7l47-24.7
		l18,9c7.4,0.7,13.1,7,13.1,14.5c0,5.6-3.2,10.7-8.3,13.2c-2,0.9-4.1,1.4-6.3,1.4c-1.2,0-2.4-0.2-3.6-0.5c-2.5-0.6-4.7-1.9-6.6-3.7
		L271.8,97c0,0.2,0,0.3,0,0.5c0,5.8-3.4,11-8.6,13.3v25.4c5.2,2.3,8.6,7.5,8.6,13.3c0,6.1-3.8,11.6-9.6,13.7c-1.6,0.6-3.3,0.9-5,0.9
		c-1.7,0-3.4-0.3-5-0.9c-5.8-2.1-9.6-7.6-9.6-13.7c0-5.8,3.4-11,8.6-13.3v-25.4c-5.2-2.3-8.6-7.5-8.6-13.3c0-0.2,0-0.3,0-0.5
		l-44.3-25.5v76.7l29.9,17.3L257.3,182.1L257.3,182.1z M210.1,54.1l-9.6,4.8l31.8,18.4l15.7,9.1c2.6-2.1,5.9-3.3,9.3-3.3
		c3.4,0,6.7,1.2,9.3,3.3l9-5.2l30.7-17.8c0.1-2.6,1-5,2.3-7.1l-4.2-2.1C288.9,62.2,273.2,70,258,78.8l-0.8,0.4l-0.8-0.4
		C241.3,70,225.6,62.2,210.1,54.1L210.1,54.1z M325,63.9c-0.1-2.2-1.9-3.8-4.1-3.8c-2.3,0-4.1,1.8-4.1,4.1c0,2.3,1.8,4.1,4.1,4.1
		c2.2,0,4-1.7,4.1-3.8c0-0.1,0-0.2,0-0.3C325,64.1,325,64,325,63.9L325,63.9z M258.7,93.7c-0.5-0.2-0.9-0.3-1.4-0.3
		c-0.5,0-1,0.1-1.4,0.3c-1.6,0.6-2.7,2.1-2.7,3.9c0,2.3,1.8,4.1,4.1,4.1c2.3,0,4.1-1.8,4.1-4.1C261.4,95.8,260.3,94.3,258.7,93.7
		L258.7,93.7z M261.4,149.5c0-0.9-0.3-1.8-0.9-2.5c-0.8-1-2-1.6-3.3-1.6c-1.3,0-2.5,0.6-3.3,1.6c-0.6,0.7-0.9,1.6-0.9,2.5
		c0,0.9,0.3,1.8,0.9,2.5c0.8,1,2,1.6,3.3,1.6c1.3,0,2.5-0.6,3.3-1.6C261.1,151.3,261.4,150.5,261.4,149.5L261.4,149.5z"/>
</g>
<path class="st2" d="M45.7,235.5c0-3-0.5-5.7-1.6-8.3c-1.1-2.6-2.6-4.8-4.6-6.6c-2-1.9-4.3-3.3-7.1-4.4c-2.7-1.1-5.7-1.6-9-1.6H7.8
	v41.9h15.6c3.3,0,6.3-0.5,9-1.6c2.7-1.1,5.1-2.6,7.1-4.4c2-1.9,3.5-4.1,4.6-6.7C45.2,241.2,45.7,238.4,45.7,235.5L45.7,235.5z
	 M38,235.6c0,2.1-0.3,4-1,5.7c-0.7,1.7-1.7,3.2-2.9,4.5c-1.3,1.3-2.8,2.2-4.6,2.9c-1.8,0.7-3.8,1-6,1h-8.3v-28.5h8.3
	c2.2,0,4.2,0.4,6,1.1c1.8,0.7,3.3,1.7,4.6,3c1.3,1.3,2.2,2.8,2.9,4.5C37.7,231.6,38,233.5,38,235.6L38,235.6z M90.1,214.6H59v41.9
	h31.4v-6.6h-24v-11.3h21v-6.6h-21v-10.9h23.7V214.6L90.1,214.6z M139.6,228.7c0-2.2-0.4-4.1-1.1-5.8c-0.7-1.7-1.8-3.2-3.2-4.4
	c-1.4-1.2-3.1-2.2-5-2.8c-2-0.7-4.2-1-6.6-1h-16.5v41.9h7.4V243h8.3c2.3,0,4.5-0.3,6.5-0.9c2-0.6,3.8-1.5,5.3-2.7
	c1.5-1.2,2.7-2.7,3.6-4.5C139.1,233.1,139.6,231,139.6,228.7L139.6,228.7z M132.1,228.8c0,2.3-0.8,4.1-2.4,5.5
	c-1.6,1.4-3.8,2.1-6.6,2.1h-8.6v-15.1h8.6c2.8,0,5,0.6,6.6,1.9C131.2,224.4,132.1,226.3,132.1,228.8L132.1,228.8z M172.8,221.4h13.3
	v-6.8h-34v6.8h13.3v35.1h7.4V221.4L172.8,221.4z M229.1,238.8v17.7h7.4v-41.9h-7.4V232h-20v-17.4h-7.4v41.9h7.4v-17.7H229.1
	L229.1,238.8z M307.9,214.6h-31.2v41.9h7.4v-17.1h21.1v-6.7h-21.1v-11.4h23.8V214.6L307.9,214.6z M327.9,214.6v41.9h7.4v-41.9H327.9
	L327.9,214.6z M393.6,256.5l-11.3-15.9c1.5-0.4,2.8-1,4-1.7c1.2-0.7,2.3-1.6,3.1-2.7c0.9-1.1,1.6-2.3,2.1-3.7
	c0.5-1.4,0.7-2.9,0.7-4.7c0-2-0.4-3.9-1.1-5.5c-0.7-1.7-1.7-3.1-3.1-4.2c-1.3-1.1-3-2-4.9-2.6c-1.9-0.6-4.1-0.9-6.5-0.9H358v41.9
	h7.4v-14.6h9.2l10.3,14.6H393.6L393.6,256.5z M384.8,228.3c0,2.2-0.8,3.9-2.3,5.1c-1.6,1.3-3.7,1.9-6.3,1.9h-10.8v-14.1h10.7
	c2.8,0,4.9,0.6,6.4,1.8C384,224.2,384.8,226,384.8,228.3L384.8,228.3z M419,225.5c0-1.4,0.6-2.6,1.8-3.6c1.2-1,2.9-1.5,5-1.5
	c1.9,0,3.8,0.4,5.7,1.1c1.9,0.7,3.8,1.8,5.7,3.2l4-5.6c-2.2-1.7-4.5-3-6.9-3.9c-2.5-0.9-5.2-1.3-8.3-1.3c-2.1,0-4,0.3-5.7,0.9
	c-1.8,0.6-3.3,1.4-4.5,2.5c-1.3,1.1-2.2,2.4-3,3.9s-1.1,3.2-1.1,5c0,2,0.3,3.6,0.9,5c0.6,1.4,1.5,2.5,2.7,3.5c1.2,1,2.6,1.8,4.4,2.4
	c1.7,0.6,3.7,1.2,6,1.7c2,0.5,3.5,0.9,4.8,1.4c1.2,0.4,2.2,0.9,2.9,1.4c0.7,0.5,1.2,1,1.4,1.6c0.3,0.6,0.4,1.3,0.4,2
	c0,1.6-0.7,2.9-2,3.9c-1.3,1-3.1,1.4-5.4,1.4c-2.6,0-5-0.5-7.1-1.4c-2.1-0.9-4.1-2.3-6.2-4l-4.4,5.3c2.5,2.3,5.2,4,8.2,5.1
	c3,1.1,6,1.6,9.3,1.6c2.2,0,4.2-0.3,6.1-0.8c1.8-0.6,3.4-1.4,4.7-2.5c1.3-1.1,2.3-2.4,3.1-4c0.7-1.6,1.1-3.3,1.1-5.3
	c0-1.8-0.3-3.3-0.9-4.6c-0.6-1.3-1.4-2.4-2.5-3.4c-1.1-1-2.5-1.8-4.2-2.5c-1.7-0.7-3.6-1.3-5.8-1.9c-2-0.5-3.6-0.9-4.9-1.4
	c-1.3-0.4-2.3-0.9-3.1-1.4c-0.7-0.5-1.2-1.1-1.5-1.7C419.1,227.1,419,226.4,419,225.5L419,225.5z M479.4,221.4h13.3v-6.8h-34v6.8
	H472v35.1h7.4V221.4L479.4,221.4z"/>
<path class="st3" d="M115.7,309.3h21.1v-4.8H121v-25.3h-5.3V309.3L115.7,309.3z M170.4,279.2H148v30.2h22.6v-4.7h-17.3v-8.1h15.1
	v-4.7h-15.1v-7.8h17.1V279.2L170.4,279.2z M198.2,279h-4.9L180,309.3h5.4l3.1-7.3h14.3l3.1,7.3h5.6L198.2,279L198.2,279z
	 M200.9,297.4h-10.4l5.2-12.1L200.9,297.4L200.9,297.4z M247.9,309.3l-8.1-11.4c1.1-0.3,2-0.7,2.9-1.2c0.9-0.5,1.6-1.2,2.3-1.9
	c0.6-0.8,1.1-1.6,1.5-2.6c0.4-1,0.5-2.1,0.5-3.4c0-1.5-0.3-2.8-0.8-4c-0.5-1.2-1.3-2.2-2.2-3c-1-0.8-2.1-1.4-3.5-1.9
	c-1.4-0.4-3-0.7-4.7-0.7h-13.4v30.2h5.3v-10.5h6.6l7.4,10.5H247.9L247.9,309.3z M241.6,289.1c0,1.6-0.6,2.8-1.7,3.7
	c-1.1,0.9-2.6,1.4-4.5,1.4h-7.8V284h7.7c2,0,3.5,0.4,4.6,1.3C241,286.1,241.6,287.4,241.6,289.1L241.6,289.1z M280.2,300l-16.2-20.8
	h-4.9v30.2h5.2v-21.5l16.6,21.5h4.4v-30.2h-5.2V300L280.2,300z M299.2,279.2v30.2h5.3v-30.2H299.2L299.2,279.2z M339.3,300
	l-16.2-20.8h-4.9v30.2h5.2v-21.5l16.6,21.5h4.4v-30.2h-5.2V300L339.3,300z M384.9,305.2v-12.7H372v4.6h7.7v5.6
	c-0.9,0.7-2,1.2-3.3,1.7c-1.2,0.4-2.6,0.6-4,0.6c-1.6,0-3-0.3-4.2-0.8c-1.2-0.5-2.3-1.3-3.2-2.3c-0.9-1-1.6-2.1-2.1-3.4
	c-0.5-1.3-0.7-2.8-0.7-4.3c0-1.5,0.3-2.8,0.8-4.1c0.5-1.3,1.2-2.4,2.1-3.4c0.9-1,1.9-1.7,3.1-2.3c1.2-0.6,2.5-0.8,3.9-0.8
	c0.9,0,1.8,0.1,2.6,0.2c0.8,0.2,1.5,0.4,2.2,0.6c0.7,0.3,1.3,0.6,1.9,1c0.6,0.4,1.2,0.8,1.8,1.3l3.4-4c-0.8-0.7-1.6-1.2-2.4-1.7
	c-0.8-0.5-1.7-0.9-2.6-1.3c-0.9-0.3-1.9-0.6-3-0.8c-1.1-0.2-2.3-0.3-3.6-0.3c-2.3,0-4.4,0.4-6.3,1.2c-1.9,0.8-3.6,2-4.9,3.4
	c-1.4,1.4-2.4,3.1-3.2,5c-0.8,1.9-1.1,3.9-1.1,6c0,2.2,0.4,4.3,1.1,6.2c0.7,1.9,1.8,3.5,3.2,4.9c1.4,1.4,3,2.5,4.9,3.3
	c1.9,0.8,4.1,1.2,6.4,1.2c1.3,0,2.6-0.1,3.8-0.4c1.2-0.2,2.3-0.6,3.4-1c1-0.4,2-0.9,2.9-1.5C383.3,306.4,384.1,305.8,384.9,305.2
	L384.9,305.2z"/>
</svg>
